<svg width="18" height="13" viewBox="0 0 18 13" fill="none" xmlns="http://www.w3.org/2000/svg">
<path d="M16.7143 0.0969849H1.28571C0.944722 0.0969849 0.617695 0.232444 0.376577 0.473562C0.135459 0.71468 0 1.04171 0 1.3827V11.6684C0 12.0094 0.135459 12.3364 0.376577 12.5775C0.617695 12.8187 0.944722 12.9541 1.28571 12.9541H16.7143C17.0553 12.9541 17.3823 12.8187 17.6234 12.5775C17.8645 12.3364 18 12.0094 18 11.6684V1.3827C18 1.04171 17.8645 0.71468 17.6234 0.473562C17.3823 0.232444 17.0553 0.0969849 16.7143 0.0969849ZM15.3 1.3827L9 5.74127L2.7 1.3827H15.3ZM1.28571 11.6684V1.9677L8.63357 7.0527C8.74118 7.12735 8.86903 7.16736 9 7.16736C9.13097 7.16736 9.25882 7.12735 9.36643 7.0527L16.7143 1.9677V11.6684H1.28571Z" fill="white"/>
</svg>
