<svg width="36" height="36" viewBox="0 0 36 36" fill="none" xmlns="http://www.w3.org/2000/svg">
<path fill-rule="evenodd" clip-rule="evenodd" d="M18 0.525574C13.2473 0.525574 12.6513 0.545719 10.7848 0.630885C8.9221 0.715842 7.64996 1.0117 6.53683 1.44434C5.38605 1.89149 4.41012 2.48987 3.43718 3.46275C2.4643 4.4357 1.86592 5.41163 1.41876 6.56241C0.986126 7.67554 0.690268 8.94767 0.605311 10.8103C0.520145 12.6769 0.5 13.2729 0.5 18.0256C0.5 22.7783 0.520145 23.3742 0.605311 25.2408C0.690268 27.1035 0.986126 28.3756 1.41876 29.4887C1.86592 30.6395 2.4643 31.6155 3.43718 32.5884C4.41012 33.5613 5.38605 34.1597 6.53683 34.6069C7.64996 35.0394 8.9221 35.3353 10.7848 35.4203C12.6513 35.5054 13.2473 35.5256 18 35.5256C22.7527 35.5256 23.3487 35.5054 25.2152 35.4203C27.0779 35.3353 28.35 35.0394 29.4632 34.6069C30.6139 34.1597 31.5899 33.5613 32.5628 32.5884C33.5357 31.6155 34.1341 30.6395 34.5813 29.4887C35.0139 28.3756 35.3097 27.1035 35.3947 25.2408C35.4799 23.3742 35.5 22.7783 35.5 18.0256C35.5 13.2729 35.4799 12.6769 35.3947 10.8103C35.3097 8.94767 35.0139 7.67554 34.5813 6.56241C34.1341 5.41163 33.5357 4.4357 32.5628 3.46275C31.5899 2.48987 30.6139 1.89149 29.4632 1.44434C28.35 1.0117 27.0779 0.715842 25.2152 0.630885C23.3487 0.545719 22.7527 0.525574 18 0.525574ZM18 3.67865C22.6726 3.67865 23.2261 3.6965 25.0714 3.7807C26.7777 3.8585 27.7043 4.14359 28.3209 4.38325C29.1378 4.70071 29.7207 5.07993 30.3331 5.69234C30.9455 6.30469 31.3247 6.88765 31.6422 7.7045C31.8818 8.32116 32.1669 9.24777 32.2447 10.954C32.3289 12.7993 32.3468 13.3528 32.3468 18.0255C32.3468 22.6982 32.3289 23.2517 32.2447 25.097C32.1669 26.8032 31.8818 27.7298 31.6422 28.3465C31.3247 29.1634 30.9455 29.7463 30.3331 30.3587C29.7207 30.9711 29.1378 31.3503 28.3209 31.6678C27.7043 31.9074 26.7777 32.1925 25.0714 32.2703C23.2264 32.3545 22.673 32.3724 18 32.3724C13.3269 32.3724 12.7735 32.3545 10.9284 32.2703C9.22219 32.1925 8.29558 31.9074 7.67893 31.6678C6.86207 31.3503 6.27911 30.9711 5.66677 30.3587C5.05442 29.7463 4.67513 29.1634 4.35767 28.3465C4.11801 27.7298 3.83292 26.8032 3.75512 25.097C3.67093 23.2517 3.65308 22.6982 3.65308 18.0255C3.65308 13.3528 3.67093 12.7993 3.75512 10.954C3.83292 9.24777 4.11801 8.32116 4.35767 7.7045C4.67513 6.88765 5.05435 6.30469 5.66677 5.69234C6.27911 5.07993 6.86207 4.70071 7.67893 4.38325C8.29558 4.14359 9.22219 3.8585 10.9284 3.7807C12.7737 3.6965 13.3272 3.67865 18 3.67865ZM9.01381 18.0259C9.01381 13.0627 13.0372 9.03939 18.0003 9.03939C22.9634 9.03939 26.9868 13.0627 26.9868 18.0259C26.9868 22.989 22.9634 27.0123 18.0003 27.0123C13.0372 27.0123 9.01381 22.989 9.01381 18.0259ZM18.0003 23.8591C14.7785 23.8591 12.1669 21.2475 12.1669 18.0258C12.1669 14.8041 14.7785 12.1925 18.0003 12.1925C21.2219 12.1925 23.8336 14.8041 23.8336 18.0258C23.8336 21.2475 21.2219 23.8591 18.0003 23.8591ZM27.3417 10.7839C28.5015 10.7839 29.4417 9.84377 29.4417 8.68396C29.4417 7.52415 28.5015 6.58392 27.3417 6.58392C26.1819 6.58392 25.2417 7.52415 25.2417 8.68396C25.2417 9.84377 26.1819 10.7839 27.3417 10.7839Z" fill="#FFFDF2"/>
</svg>
