<svg width="18" height="26" viewBox="0 0 18 26" fill="none" xmlns="http://www.w3.org/2000/svg">
<path fill-rule="evenodd" clip-rule="evenodd" d="M4.54069 1.37288C7.3498 -0.259335 10.8027 -0.230807 13.5854 1.44761C16.3408 3.16022 18.0155 6.21672 17.9999 9.50465C17.9358 12.771 16.14 15.8414 13.8954 18.215C12.5999 19.5911 11.1506 20.8079 9.57714 21.8406C9.41509 21.9343 9.23759 21.9971 9.05339 22.0257C8.87611 22.0182 8.70346 21.9658 8.55102 21.8733C6.14887 20.3216 4.04146 18.3409 2.33015 16.0265C0.898191 14.0946 0.0846464 11.7605 1.49366e-06 9.34134C-0.00185745 6.04709 1.73157 3.0051 4.54069 1.37288ZM6.16442 10.7049C6.63695 11.8698 7.75231 12.6297 8.98971 12.6297C9.80036 12.6355 10.5796 12.3108 11.1538 11.7279C11.7281 11.1451 12.0496 10.3524 12.0467 9.52667C12.051 8.26622 11.309 7.12742 10.167 6.64201C9.02503 6.1566 7.70841 6.42032 6.8319 7.31004C5.95539 8.19976 5.69189 9.53997 6.16442 10.7049Z" fill="#FFFDF2"/>
<ellipse opacity="0.4" cx="8.99943" cy="24.5971" rx="6.42861" ry="1.28572" fill="#FFFDF2"/>
</svg>
