<?xml version="1.0" encoding="UTF-8"?>
<svg version="1.1" viewBox="0 0 1600 1600" width="1280" height="1280" xmlns="http://www.w3.org/2000/svg">
<path transform="translate(0)" d="m0 0h1600v1600h-1600v-1600z" fill="#FAFDFF"/>
<path transform="translate(988 400)" d="m0 0c0.744 0.00122 1.49 0.00244 2.26 0.00369 30.9 0.0595 30.9 0.0595 35.1 2.12 1.41 0.218 2.82 0.392 4.24 0.543 21 2.39 41.9 6.09 61.8 13.5 1.64 0.568 3.28 1.13 4.92 1.69 9.16 3.14 18.2 6.39 27.1 10.3 0.641 0.272 1.28 0.544 1.94 0.825 6.22 2.68 12.1 5.83 18.1 9.11 0.933 0.512 1.87 1.02 2.83 1.55 2.73 1.5 5.45 3 8.17 4.51 0.81 0.444 1.62 0.888 2.45 1.35 11.3 6.23 21.8 13.4 31.9 21.4 2.86 2.25 5.75 4.46 8.64 6.67 5.63 4.32 11 8.55 16 13.6 1.33 1.33 2.67 2.67 4 4 3 3 6 6 9 9 0.532 0.521 1.06 1.04 1.61 1.58 3.67 3.61 7.13 7.34 10.5 11.2 2.15 2.47 4.37 4.88 6.58 7.3 8.31 9.22 8.31 9.22 8.31 12.9h2c1.41 1.77 2.73 3.63 4 5.5 0.392 0.576 0.785 1.15 1.19 1.75 3.56 5.28 6.94 10.7 10.3 16.1 2.12 3.44 4.3 6.8 6.65 10.1 3.37 4.93 5.72 10.4 8.16 15.8 1.87 4.2 1.87 4.2 4.71 7.76 0.712 1.86 1.42 3.73 2.09 5.61 0.985 2.59 2.12 5.07 3.29 7.58 1.89 4.07 3.52 8.16 5.06 12.4 7.49 19.6 22.7 34.9 40.6 45.4 0.762 0.474 1.52 0.949 2.31 1.44 4.87 2.92 9.59 4.57 15.1 5.89 2.58 0.676 2.58 0.676 5 1.69 9.85 3.77 21.3 3.19 31.7 2.91 0.865-0.0169 1.73-0.0338 2.62-0.0513 1.16-0.0348 1.16-0.0348 2.34-0.0703 1.92 0.195 1.92 0.195 3.92 2.2 0.411 2.28 0.732 4.57 1 6.88 0.431 4.66 0.431 4.66 1.97 9.01 2.06 4.21 2.44 9.03 3.22 13.6 0.19 1.05 0.38 2.09 0.576 3.17 0.175 1.01 0.349 2.01 0.529 3.05 0.24 1.38 0.24 1.38 0.485 2.78 0.219 2.47-0.0143 4.16-0.778 6.5-0.874 0.231-1.75 0.461-2.65 0.699-6.41 1.7-12.8 3.42-19.2 5.22-7.12 2-14.2 3.86-21.5 5.41-2.68 0.596-2.68 0.596-5 1.66-3.75 1.42-7.56 2-11.5 2.64-0.788 0.134-1.58 0.268-2.39 0.406-1.93 0.328-3.87 0.649-5.8 0.969v2l-4 1c-1.55 6.01-2.5 10.1 0 16 0.465 2.06 0.927 4.12 1.37 6.18 1.93 8.65 3.92 17.4 6.92 25.7 1.91 5.61 3.33 11.4 4.8 17.1 0.192 0.746 0.384 1.49 0.582 2.26 0.404 1.57 0.807 3.14 1.21 4.7 0.61 2.37 1.22 4.75 1.84 7.12 3.27 12.7 3.27 12.7 4.48 18.2 0.598 2.74 1.28 5.32 2.11 7.98 1.53 4.96 2.77 9.96 4 15 2.01 8.21 4.24 16.3 6.63 24.4 1.36 4.66 2.54 9.3 3.56 14 0.82 3.64 1.85 7.23 2.87 10.8 0.448 1.6 0.896 3.2 1.34 4.8 0.219 0.782 0.438 1.56 0.664 2.37 3.29 11.8 6.24 23.6 9.16 35.5 0.289 1.17 0.578 2.33 0.875 3.54 0.257 1.05 0.515 2.09 0.78 3.17 0.558 2.08 1.2 4.15 1.9 6.19 0.993 3.09 1.06 5.6 0.909 8.82-1.18 0.289-2.35 0.578-3.56 0.875-2.56 0.638-5.09 1.32-7.62 2.06-3.2 0.892-6.38 1.65-9.62 2.38-6.26 1.42-12.4 3.11-18.6 4.85-4.27 1.2-8.54 2.35-12.8 3.4-4.03 0.986-8.02 2.08-12 3.25-7.59 2.2-15.2 4.08-22.9 5.97-5.57 1.38-11.1 2.83-16.6 4.47-16.3 4.73-16.3 4.73-20.4 2.66-2.38-2.45-3.54-4.88-4.98-7.98-3.22-6.78-6.82-13.3-10.6-19.8-4.12-7.25-4.12-7.25-4.29-11.1 0.639-0.804 1.28-1.61 1.94-2.44 3.71-5.02 2.93-11.7 2.06-17.6-2.54-6.24-5.8-9.38-12-12-2.13-0.528-4.28-0.983-6.44-1.38-14.4-2.9-28.6-7.97-41.3-15.3-2.52-1.45-5.08-2.82-7.64-4.18-7.75-4.23-15.3-8.66-21.9-14.6-2.73-2.39-5.64-4.54-8.54-6.73-2.58-2.11-4.87-4.42-7.21-6.81-1.17-1.13-1.17-1.13-2.36-2.29-20.2-19.7-35.3-44.1-44.6-70.7-0.224-0.632-0.448-1.26-0.678-1.91-3.18-9.12-5.25-18.2-6.74-27.7-0.388-3.21-0.388-3.21-1.58-5.35-1.87-17-1.87-17-1-25 2-2 2-2 3.9-2.25 0.774 0.00143 1.55 0.00285 2.35 0.00432 0.878-0.00308 1.76-0.00615 2.66-0.00932 1.42 0.0108 1.42 0.0108 2.88 0.0218 1.46 6.87e-4 1.46 6.87e-4 2.94 0.00139 2.06 0.00302 4.11 0.0109 6.17 0.0233 3.16 0.0183 6.32 0.0205 9.47 0.0203 1.99 0.00492 3.99 0.0107 5.98 0.0176 1.43 0.00167 1.43 0.00167 2.88 0.00337 0.874 0.00638 1.75 0.0128 2.65 0.0193 0.773 0.00381 1.55 0.00762 2.34 0.0116 1.78 0.134 1.78 0.134 2.78 1.13 0.335 2.29 0.616 4.58 0.875 6.88 0.765 6.41 1.61 12.8 2.56 19.2 0.11 0.784 0.22 1.57 0.333 2.38 0.763 4.97 2.11 9 4.23 13.6 0.481 1.41 0.943 2.83 1.38 4.25 2.71 8.26 6.65 15.9 10.7 23.6 0.328 0.631 0.657 1.26 0.995 1.91 2 3.75 4.21 6.98 6.94 10.2 0.721 0.909 1.44 1.82 2.18 2.75 1.12 1.39 1.12 1.39 2.25 2.81 0.741 0.929 1.48 1.86 2.25 2.82 2.26 2.56 4.63 4.52 7.32 6.62 0.888 1.03 1.75 2.1 2.56 3.19 10.4 12.4 27.8 21.6 42.4 27.8 1.24 0.551 1.24 0.551 2.51 1.11 8.61 3.68 17.9 6.12 27.1 7.7 15.6 3.29 28.2 15.4 36.7 28.2 2.85 4.79 4.9 9.86 6.9 15 0.259 0.661 0.517 1.32 0.783 2 1.73 4.65 2.5 8.99 2.97 13.9 1.37 0.055 2.75 0.0932 4.12 0.125 1.15 0.0348 1.15 0.0348 2.32 0.0703 3.1-0.237 5.61-1.19 8.55-2.2 3.11-0.776 6.24-1.45 9.38-2.12 0.831-0.182 1.66-0.364 2.52-0.551 2.03-0.444 4.07-0.885 6.11-1.32-4.45-22.3-4.45-22.3-11.3-43.9-0.95-2.8-1.5-5.62-2.08-8.52-1.08-5.31-2.42-10.4-4-15.6-1.99-6.51-3.65-13.1-5.19-19.7-1.61-6.96-3.42-13.8-5.61-20.6-0.933-3.02-1.63-6.03-2.27-9.12-0.768-3.54-1.63-7.06-2.5-10.6-0.158-0.653-0.316-1.31-0.479-1.98-0.876-3.53-1.88-6.97-3.06-10.4-1.62-4.75-2.85-9.55-4.03-14.4-0.434-1.76-0.867-3.53-1.3-5.29-0.206-0.842-0.412-1.68-0.624-2.55-0.736-2.99-1.5-5.98-2.26-8.97-0.442-1.79-0.88-3.58-1.31-5.38-0.309-1.27-0.309-1.27-0.625-2.56-3.63-16.2-0.576-30.1 7.94-44.2 2.92-4.47 6.22-7.96 10.3-11.4 1.64-1.79 1.64-1.79 1.5-4.28-1.5-3.53-3.98-5.19-7.03-7.32-1.19-0.873-2.38-1.75-3.57-2.63-0.592-0.437-1.18-0.874-1.79-1.32-4.14-3.15-7.92-6.73-11.7-10.3-0.624-0.571-1.25-1.14-1.89-1.73-5.13-4.87-9.06-10.5-13.1-16.3-0.599-0.804-1.2-1.61-1.82-2.44-6.65-9.04-11.4-19-15.2-29.6-1.27-3.03-2.63-6.01-4-9-0.758-1.67-0.758-1.67-1.53-3.38-12.6-27.7-28.8-52.8-49.3-75.3-1.94-2.14-3.81-4.33-5.68-6.53-2.96-3.41-6.19-6.36-9.64-9.27-1.69-1.45-3.23-2.97-4.8-4.54-8.37-7.64-17.3-14.6-26.5-21.2-1.47-1.06-2.94-2.12-4.38-3.21-4.25-3.17-8.77-5.64-13.4-8.12-2.32-1.27-4.54-2.6-6.76-4.04-7.85-4.99-16.5-8.67-24.9-12.4-0.65-0.289-1.3-0.577-1.97-0.875-4.28-1.87-8.64-3.53-13-5.12-1.04-0.383-2.09-0.766-3.16-1.16-11.6-4.21-23.1-7.87-35.2-10.1-3.61-0.711-3.61-0.711-7.12-1.7-6.32-1.62-12.9-1.97-19.4-2.57-2.62-0.247-5.25-0.499-7.87-0.754-1.15-0.108-2.31-0.215-3.5-0.326-2.76-0.357-2.76-0.357-4.76-1.36-2.68-0.0989-5.32-0.14-8-0.133-0.791-9.57e-4 -1.58-0.00191-2.4-0.0029-1.67-6.81e-4 -3.35 0.00117-5.02 0.00534-2.57 0.00535-5.14 5.21e-5 -7.7-0.00635-1.63 6.61e-4 -3.25 0.00194-4.88 0.00391-1.16-0.00304-1.16-0.00304-2.34-0.00613-3.96-0.0665-3.96-0.0665-7.66 1.14-1.44 0.185-2.89 0.321-4.34 0.43-1.33 0.107-1.33 0.107-2.7 0.217-0.958 0.0754-1.92 0.151-2.9 0.229-7.54 0.64-15 1.44-22.5 2.62-0.761 0.118-1.52 0.237-2.31 0.359-4.53 0.745-8.85 1.82-13.3 3.14-1.87 0.467-3.75 0.926-5.62 1.38-9.85 2.46-19.3 5.45-28.6 9.48-2.39 0.989-4.73 1.79-7.2 2.52-5.2 1.64-9.81 4.34-14.5 7-2.64 1.42-5.23 2.52-8.02 3.62-5.25 2.68-10.4 5.55-15.3 8.75-3.11 1.99-6.11 3.27-9.69 4.25v2c-2.12 1.51-2.12 1.51-4.88 3.12-0.905 0.539-1.81 1.08-2.74 1.63-2.38 1.24-2.38 1.24-4.38 1.24-0.33 0.99-0.66 1.98-1 3-1.96 1.38-3.97 2.71-6 4-5.22 3.99-10.1 8.41-15 12.8-0.619 0.545-1.24 1.09-1.88 1.65-0.554 0.494-1.11 0.987-1.68 1.5-1.45 1.07-1.45 1.07-3.45 1.07-0.396 0.905-0.396 0.905-0.801 1.83-1.26 2.28-2.35 3.34-4.39 4.92-4.69 3.86-8.5 8.37-12.3 13.1-1.14 1.41-2.32 2.79-3.52 4.16h-2c-0.103 0.598-0.206 1.2-0.312 1.81-0.805 2.56-1.73 3.38-3.69 5.19-2.15 2.6-4.13 5.19-6 8h-2c-0.186 0.804-0.371 1.61-0.562 2.44-1.65 4.08-3.9 6.82-6.64 10.2-2.17 2.83-3.82 5.77-5.49 8.91-1.48 2.76-3.08 5.43-4.68 8.12-5.52 9.44-10.3 19.2-14.6 29.3-0.411 0.945-0.822 1.89-1.25 2.86-2.41 5.62-4.5 11.2-6.08 17.1-0.676 2.06-0.676 2.06-2.68 5.06-0.613 1.91-0.613 1.91-1.04 3.98-0.17 0.753-0.339 1.51-0.514 2.28-0.17 0.781-0.339 1.56-0.514 2.37-1.81 8.25-1.81 8.25-2.94 9.38-0.282 1.32-0.513 2.66-0.719 4-0.128 0.804-0.255 1.61-0.387 2.44-0.13 0.846-0.26 1.69-0.395 2.56-0.257 1.67-0.517 3.33-0.781 5-0.114 0.743-0.228 1.48-0.346 2.25-0.373 1.75-0.373 1.75-1.37 2.75-2.73 15.4-3.25 31.4-3.58 47-0.0294 1.31-0.0294 1.31-0.0594 2.65-0.581 26.3-0.551 52.7-0.596 79.1-0.0133 7.61-0.0336 15.2-0.0547 22.8-0.0375 13.6-0.0726 27.2-0.105 40.8-0.0019 0.806-0.0038 1.61-0.00576 2.44-0.0269 11.5-0.0508 23-0.0734 34.4-0.0016 0.813-0.00319 1.63-0.00484 2.46-0.00159 0.812-0.00319 1.62-0.00483 2.46-0.0268 13.6-0.0613 27.2-0.102 40.7-0.0246 8.32-0.043 16.6-0.0532 25-0.00744 5.69-0.022 11.4-0.0421 17.1-0.0113 3.27-0.0184 6.54-0.019 9.81-0.0056 18.2-0.0779 36.3-5.05 53.9-0.257 0.951-0.515 1.9-0.78 2.88-2.4 8.65-5.29 17.1-8.47 25.5h-2c-0.159 0.534-0.317 1.07-0.48 1.62-1.92 6.13-4.52 11.7-7.52 17.4h-2c-0.206 0.804-0.412 1.61-0.625 2.44-2.29 5.93-5.8 11.1-10.4 15.6-1.14 1.26-2.26 2.53-3.38 3.81-0.922 1.06-0.922 1.06-1.86 2.13-1.48 1.72-2.91 3.47-4.32 5.24-2.63 3.03-5.32 5.29-8.44 7.81-0.743 0.763-1.48 1.53-2.25 2.31-1.75 1.69-1.75 1.69-3.75 1.69-0.33 0.99-0.66 1.98-1 3-1.43 1.33-1.43 1.33-3.24 2.66-0.655 0.482-1.31 0.964-1.99 1.46-0.689 0.495-1.38 0.99-2.09 1.5-0.677 0.503-1.35 1.01-2.05 1.52-5.15 3.75-5.15 3.75-7.8 4.31-0.606 0.177-1.21 0.355-1.84 0.538-0.33 0.99-0.66 1.98-1 3-1.64 0.729-3.31 1.39-5 2-1.68 0.979-3.34 1.98-5 3-14 8.13-29.2 13.3-45 17-0.97 0.239-0.97 0.239-1.96 0.483-31.5 7.49-67.8 5.16-97.9-6.36-0.685-0.26-1.37-0.521-2.08-0.789-2.02-0.772-4.03-1.55-6.05-2.34l-3.24-1.25c-20.1-8.05-39.6-21.2-54.8-36.7-0.784-0.763-1.57-1.53-2.38-2.31-6.35-6.5-12-13.6-17.6-20.7-0.677-0.813-1.35-1.63-2.05-2.46-1.96-2.55-3.45-5.07-4.95-7.91-0.77-1.44-0.77-1.44-1.55-2.91-0.477-0.895-0.954-1.79-1.45-2.71-1.64-2.92-3.29-5.83-5.03-8.7-3.74-6.29-5.92-13-8.13-19.9-0.862-2.54-0.862-2.54-2.3-5.53-1.92-4.42-2.76-9-3.66-13.7-0.333-1.71-0.668-3.41-1.01-5.12-0.215-1.12-0.215-1.12-0.434-2.26-0.278-1.76-0.278-1.76-1.43-2.75-3.06-22.8-2.22-46.2-2.08-69.1 0.0441-7.27 0.073-14.5 0.096-21.8 0.0101-2.5 0.0271-5.01 0.045-7.51 0.09-16.7-1.52-30.7-12.3-44.3-1.58-2.05-2.62-4-3.77-6.3-1.88-1.11-1.88-1.11-4-2l-1.75-1.38c-5.86-4.23-12.1-6.29-19-8.01-2.22-0.613-2.22-0.613-3.22-1.61-2.74-0.128-5.45-0.185-8.19-0.188-0.756-0.0122-1.51-0.0245-2.29-0.0371-4.6-0.012-8.19 0.525-12.5 2.22-0.813 0.237-1.63 0.474-2.46 0.719-15.2 4.81-26.7 14.3-34.2 28.4-1.08 2.28-2.1 4.53-2.99 6.89-0.36 0.928-0.36 0.928-0.727 1.88-3.58 11.7-2.42 25.1 2.75 36.1 2.12 3.97 4.39 7.77 6.98 11.5 1.62 2.56 1.62 2.56 1.62 6.56-2.38 2.75-2.38 2.75-5 5h-2c-0.34 0.835-0.34 0.835-0.688 1.69-2.27 4-4.93 6.85-9.31 8.31l-0.875 1.75c-1.52 3.05-3.61 4.98-6.12 7.25-0.99 0.33-1.98 0.66-3 1-0.33 0.99-0.66 1.98-1 3-3.5 0.326-5.36 0.478-8.24-1.66-8.54-9.89-15.6-20.9-19.8-33.3l-1.06-2.94c-0.464-1.52-0.464-1.52-0.938-3.06-0.241-0.718-0.482-1.44-0.73-2.18-2.47-7.98-2.81-15.6-2.77-23.9 0.00209-0.683 0.00419-1.37 0.00635-2.07 0.105-16.7 3.83-29.9 11.7-44.5 1.77-3.2 1.77-3.2 2.82-6.12 1.01-2.39 2.06-3.5 3.95-5.24 0.978-1.28 1.94-2.57 2.88-3.88 2.48-3.34 5.1-6.26 8.12-9.12 0.887-0.928 1.77-1.86 2.69-2.81 2.31-2.19 2.31-2.19 4.31-2.19 0.33-0.99 0.66-1.98 1-3 1.32-0.702 2.65-1.37 4-2 0.623-0.659 0.623-0.659 1.26-1.33 2.35-2.25 4.94-3.72 7.74-5.36 1.05-0.623 2.1-1.25 3.19-1.89 2.81-1.43 2.81-1.43 5.81-1.43v-2c5.65-2.07 11.3-4.1 17-6l2.29-0.984c8.53-3.19 18-3.19 27-3.2 0.823-8.06e-4 1.65-0.00161 2.49-0.00244 7.71 0.0697 14.9 0.497 22.2 3.19 1.4 0.373 1.4 0.373 2.83 0.754 17.7 4.8 33.9 14.6 45.2 29.2 0.908 0.887 1.82 1.77 2.75 2.69 2.25 2.31 2.25 2.31 2.25 4.31 0.99 0.33 1.98 0.66 3 1 1.42 2.11 2.66 4.15 3.88 6.38 0.529 0.957 0.529 0.957 1.07 1.93 1.03 1.89 2.05 3.79 3.06 5.69l1.46 2.74c2.68 5.46 4.57 11.1 6.29 16.9 0.211 0.682 0.422 1.36 0.639 2.07 3.76 13.5 2.78 28.6 2.87 42.5 0.0214 3.13 0.0484 6.26 0.0767 9.39 0.0691 7.76 0.129 15.5 0.189 23.3 0.0511 6.59 0.106 13.2 0.166 19.8 0.0264 3.07 0.0473 6.14 0.068 9.21 0.0166 1.89 0.0335 3.78 0.0507 5.67 0.00418 0.844 0.00837 1.69 0.0127 2.56 0.0769 7.33 0.764 13.9 3.18 20.9 0.445 1.87 0.881 3.75 1.31 5.62 5.24 21.1 17.8 39.8 32.7 55.4 0.668 0.719 1.34 1.44 2.02 2.18 4.07 4.26 8.24 7.54 13.3 10.6 0.557 0.405 1.11 0.81 1.69 1.23v2c0.681 0.227 1.36 0.454 2.06 0.688 2.47 1.11 4.18 2.15 6.31 3.75 3.34 2.45 6.78 4.06 10.6 5.56 1.96 0.833 3.92 1.67 5.88 2.5 7.24 3 14.3 5.44 22 7.03 1.87 0.416 3.72 0.964 5.55 1.53 7.98 2.1 16.2 2.1 24.4 2.06 0.96-0.00338 1.92-0.00677 2.91-0.0103 11.3 0.564 11.3 0.564 22-2.04 3.43-1.65 7.07-2.15 10.8-2.89 6.43-1.34 12.1-3.05 18-6.02 3.69-1.79 7.5-2.95 11.4-4.17v-2c0.825-0.392 1.65-0.784 2.5-1.19 5.8-3 11-6.02 15.5-10.8 1.14-0.966 2.29-1.92 3.44-2.88 3.29-2.79 5.85-5.77 8.56-9.12 1.17-1.15 1.17-1.15 2.37-2.33 7.1-7.21 12.7-15.8 17.6-24.7 0.356-0.629 0.712-1.26 1.08-1.91 9.13-17.1 13.1-36.3 13.1-55.5 0.00423-1.24 0.00846-2.48 0.0128-3.76 0.0107-3.43 0.0171-6.85 0.0216-10.3 0.00597-3.7 0.0176-7.41 0.0286-11.1 0.0183-6.42 0.0332-12.8 0.0458-19.2 0.0184-9.31 0.043-18.6 0.0694-27.9 0.0428-15.1 0.0819-30.3 0.118-45.4 0.00216-0.906 0.00433-1.81 0.00655-2.75 0.0131-5.51 0.0262-11 0.0392-16.5 0.0194-8.22 0.039-16.4 0.0588-24.7 0.00216-0.899 0.00432-1.8 0.00654-2.72 0.0363-15.1 0.0763-30.1 0.119-45.2 0.0259-9.26 0.0486-18.5 0.067-27.8 0.0128-6.37 0.029-12.7 0.0476-19.1 0.0106-3.66 0.0198-7.32 0.0247-11 0.0204-14.4 0.147-28.7 0.57-43.1 0.0301-1.2 0.0603-2.39 0.0913-3.62 0.206-6.12 0.795-11.5 2.52-17.4 0.302-1.93 0.566-3.87 0.781-5.82l0.363-3.12c0.238-2.13 0.475-4.26 0.711-6.39 0.601-5.15 1.33-9.78 3.14-14.7 0.552-2.76 0.995-5.53 1.44-8.32 0.575-2.74 1.5-5.1 2.56-7.68 0.517-2.13 0.929-4.27 1.34-6.43 0.747-2.91 1.77-5.64 2.85-8.45 1.3-3.41 2.48-6.87 3.68-10.3 7.11-20.2 7.11-20.2 11.1-26.8 1.2-2.39 2.39-4.78 3.56-7.19 5.92-12 12-24 20-34.8 1.52-2.05 1.52-2.05 2.87-4.39 1.95-3.23 4.1-6.28 6.29-9.34 0.661-0.923 0.661-0.923 1.34-1.86 5.43-7.53 11.2-14.7 17.4-21.6 1.44-1.64 2.83-3.31 4.21-5 2.33-2.76 4.82-5.26 7.38-7.81 0.763-0.949 1.53-1.9 2.31-2.88 3.87-4.73 8.67-8.52 13.4-12.3 2.24-1.74 2.24-1.74 4.06-3.62 22.3-22.3 51.1-38.4 79.2-52.2 1.05-0.517 1.05-0.517 2.13-1.05 12.8-6.24 25.6-11.8 39.4-15.3 2.25-0.596 4.41-1.3 6.61-2.08 6.06-2.07 12.3-3.5 18.5-5 1.65-0.408 3.29-0.839 4.93-1.28 7.54-2.01 15.1-3.22 22.8-4.16 2-0.244 3.99-0.499 5.99-0.756 13.8-1.73 27.4-2.54 41.3-2.49z" fill="#152745"/>
</svg>
