<svg width="266" height="174" viewBox="0 0 266 174" fill="none" xmlns="http://www.w3.org/2000/svg">
<path d="M173.956 0C174.118 0.000265762 174.279 0.000531524 174.446 0.000803822C181.149 0.0137652 181.149 0.0137652 182.06 0.46262C182.366 0.510109 182.671 0.548013 182.979 0.580906C187.535 1.10154 192.068 1.90754 196.384 3.52172C196.74 3.64545 197.096 3.76787 197.451 3.88986C199.438 4.57387 201.399 5.28185 203.33 6.13359C203.469 6.19285 203.607 6.2521 203.75 6.31331C205.1 6.89712 206.375 7.5833 207.676 8.29781C207.879 8.40935 208.082 8.52001 208.29 8.63546C208.882 8.96222 209.472 9.28898 210.062 9.61791C210.238 9.71463 210.414 9.81135 210.594 9.91199C213.045 11.2691 215.322 12.831 217.513 14.5737C218.133 15.0639 218.76 15.5453 219.387 16.0267C220.608 16.9678 221.773 17.8892 222.858 18.9893C223.146 19.279 223.437 19.5709 223.725 19.8606C224.376 20.5142 225.027 21.1677 225.677 21.8212C225.793 21.9347 225.907 22.0477 226.027 22.1654C226.823 22.9518 227.573 23.7643 228.304 24.6052C228.771 25.1432 229.252 25.6682 229.731 26.1954C231.534 28.2038 231.534 28.2038 231.534 29.0055H231.968C232.274 29.3911 232.56 29.7962 232.835 30.2036C232.92 30.3291 233.006 30.4541 233.093 30.5848C233.866 31.735 234.599 32.9157 235.328 34.092C235.787 34.8414 236.26 35.5733 236.77 36.2922C237.501 37.3661 238.011 38.5577 238.54 39.734C238.946 40.6489 238.946 40.6489 239.562 41.4244C239.716 41.8296 239.87 42.237 240.015 42.6465C240.229 43.2107 240.475 43.7509 240.729 44.2977C241.139 45.1843 241.492 46.0753 241.826 46.9989C243.451 51.2685 246.75 54.6014 250.633 56.8887C250.798 56.992 250.962 57.0955 251.134 57.2024C252.19 57.8385 253.214 58.1979 254.409 58.4855C254.968 58.6327 254.968 58.6327 255.493 58.8536C257.63 59.6749 260.113 59.5485 262.369 59.4875C262.557 59.4839 262.745 59.4802 262.938 59.4764C263.189 59.4688 263.189 59.4688 263.445 59.461C263.862 59.5035 263.862 59.5035 264.295 59.9403C264.385 60.437 264.454 60.9358 264.512 61.439C264.606 62.4541 264.606 62.4541 264.94 63.4017C265.386 64.3188 265.469 65.3688 265.638 66.3643C265.679 66.5931 265.721 66.8196 265.763 67.0549C265.801 67.2749 265.839 67.4927 265.878 67.7193C265.93 68.0199 265.93 68.0199 265.983 68.3249C266.03 68.8629 265.98 69.2311 265.814 69.7408C265.625 69.7911 265.435 69.8412 265.239 69.8931C263.849 70.2634 262.463 70.6381 261.075 71.0302C259.53 71.4659 257.995 71.8711 256.411 72.2087C255.83 72.3385 255.83 72.3385 255.327 72.5703C254.513 72.8796 253.687 73.006 252.832 73.1454C252.661 73.1746 252.49 73.2038 252.314 73.2338C251.895 73.3053 251.475 73.3752 251.056 73.4449V73.8806L250.188 74.0984C249.852 75.4077 249.646 76.2986 250.188 77.5839C250.289 78.0326 250.389 78.4813 250.485 78.9301C250.904 80.8144 251.336 82.7205 251.986 84.5285C252.401 85.7506 252.709 87.0119 253.028 88.2536C253.069 88.4161 253.111 88.5781 253.154 88.7459C253.241 89.0879 253.329 89.4299 253.416 89.7697C253.549 90.286 253.681 90.8044 253.815 91.3207C254.525 94.0872 254.525 94.0872 254.787 95.2854C254.917 95.8822 255.065 96.4443 255.245 97.0237C255.577 98.1042 255.846 99.1934 256.112 100.291C256.548 102.08 257.032 103.842 257.551 105.607C257.846 106.622 258.101 107.632 258.323 108.656C258.501 109.449 258.724 110.231 258.945 111.009C259.042 111.357 259.14 111.706 259.236 112.055C259.283 112.225 259.331 112.394 259.38 112.571C260.094 115.141 260.733 117.712 261.367 120.304C261.429 120.559 261.492 120.812 261.557 121.075C261.612 121.304 261.668 121.53 261.726 121.766C261.847 122.219 261.986 122.67 262.138 123.114C262.353 123.787 262.368 124.334 262.335 125.035C262.079 125.098 261.825 125.161 261.563 125.226C261.008 125.365 260.459 125.514 259.91 125.675C259.216 125.869 258.526 126.034 257.823 126.193C256.466 126.503 255.134 126.871 253.789 127.25C252.863 127.511 251.937 127.762 251.013 127.99C250.138 128.205 249.273 128.444 248.41 128.698C246.763 129.178 245.113 129.587 243.443 129.999C242.234 130.3 241.035 130.615 239.842 130.973C236.306 132.003 236.306 132.003 235.417 131.552C234.901 131.018 234.649 130.489 234.337 129.814C233.638 128.337 232.857 126.917 232.038 125.501C231.144 123.921 231.144 123.921 231.107 123.083C231.246 122.907 231.385 122.732 231.528 122.551C232.333 121.457 232.163 120.002 231.975 118.717C231.424 117.358 230.717 116.674 229.372 116.103C228.91 115.988 228.443 115.889 227.975 115.802C224.851 115.171 221.771 114.066 219.017 112.469C218.47 112.154 217.915 111.855 217.36 111.559C215.679 110.637 214.041 109.672 212.609 108.379C212.017 107.858 211.386 107.39 210.757 106.912C210.197 106.453 209.701 105.95 209.193 105.429C208.939 105.183 208.939 105.183 208.681 104.93C204.3 100.639 201.024 95.3235 199.007 89.529C198.959 89.3913 198.91 89.2545 198.86 89.1129C198.17 87.1262 197.721 85.1483 197.398 83.0788C197.314 82.3796 197.314 82.3796 197.055 81.9134C196.65 78.2101 196.65 78.2101 196.838 76.4674C197.272 76.0318 197.272 76.0318 197.684 75.9773C197.852 75.9776 198.021 75.9779 198.194 75.9782C198.385 75.9776 198.576 75.9769 198.771 75.9762C199.079 75.9786 199.079 75.9786 199.396 75.981C199.712 75.9811 199.712 75.9811 200.034 75.9813C200.48 75.9819 200.925 75.9836 201.372 75.9863C202.057 75.9903 202.743 75.9908 203.426 75.9908C203.858 75.9918 204.291 75.9931 204.723 75.9946C205.033 75.995 205.033 75.995 205.348 75.9953C205.537 75.9967 205.727 75.9981 205.923 75.9995C206.09 76.0004 206.259 76.0012 206.43 76.0021C206.816 76.0312 206.816 76.0312 207.033 76.2482C207.106 76.7471 207.167 77.2459 207.223 77.7469C207.389 79.1433 207.572 80.5353 207.778 81.9294C207.802 82.1002 207.826 82.2714 207.85 82.4479C208.016 83.5305 208.308 84.4084 208.768 85.4105C208.872 85.7176 208.972 86.027 209.067 86.3363C209.655 88.1356 210.51 89.7999 211.388 91.4773C211.459 91.6147 211.531 91.7517 211.604 91.8933C212.038 92.7102 212.517 93.4138 213.109 94.1153C213.266 94.3133 213.422 94.5117 213.582 94.7143C213.825 95.0171 213.825 95.0171 214.07 95.3265C214.231 95.5288 214.391 95.7316 214.558 95.9408C215.048 96.4984 215.562 96.9254 216.146 97.3829C216.339 97.6072 216.526 97.8403 216.701 98.0778C218.957 100.779 222.731 102.783 225.898 104.134C226.167 104.254 226.167 104.254 226.443 104.375C228.31 105.177 230.325 105.709 232.321 106.053C235.704 106.769 238.437 109.407 240.281 112.196C240.899 113.239 241.344 114.344 241.778 115.463C241.834 115.607 241.89 115.751 241.948 115.899C242.323 116.912 242.49 117.857 242.592 118.927C242.889 118.939 243.188 118.947 243.485 118.954C243.735 118.962 243.735 118.962 243.989 118.97C244.661 118.918 245.206 118.71 245.843 118.49C246.518 118.321 247.197 118.174 247.878 118.028C248.058 117.989 248.238 117.949 248.424 117.908C248.865 117.812 249.307 117.716 249.75 117.621C248.784 112.763 248.784 112.763 247.299 108.058C247.093 107.448 246.973 106.834 246.848 106.202C246.613 105.045 246.323 103.936 245.98 102.804C245.548 101.385 245.188 99.9499 244.854 98.5122C244.505 96.996 244.112 95.506 243.637 94.0247C243.435 93.3669 243.284 92.7112 243.145 92.038C242.978 91.2669 242.791 90.5001 242.603 89.729C242.568 89.5867 242.534 89.4436 242.499 89.2976C242.309 88.5287 242.091 87.7793 241.835 87.0321C241.484 85.9974 241.217 84.9518 240.961 83.8953C240.867 83.5119 240.773 83.1263 240.679 82.7429C240.634 82.5595 240.59 82.3769 240.544 82.1874C240.384 81.5361 240.218 80.8847 240.053 80.2334C239.957 79.8435 239.862 79.4535 239.769 79.0614C239.702 78.7848 239.702 78.7848 239.634 78.5038C238.846 74.9748 239.509 71.9469 241.356 68.8753C241.989 67.9016 242.705 67.1413 243.59 66.392C243.946 66.0021 243.946 66.0021 243.915 65.4596C243.59 64.6907 243.052 64.3291 242.391 63.8651C242.132 63.6749 241.874 63.4839 241.616 63.2922C241.488 63.197 241.36 63.1018 241.228 63.0046C240.33 62.3184 239.51 61.5386 238.69 60.7609C238.555 60.6365 238.419 60.5125 238.28 60.384C237.167 59.3232 236.315 58.0967 235.439 56.8333C235.309 56.6581 235.178 56.4825 235.044 56.3017C233.601 54.3325 232.571 52.1628 231.747 49.8537C231.471 49.1937 231.176 48.5445 230.879 47.8932C230.715 47.5294 230.715 47.5294 230.547 47.1569C227.814 41.1228 224.301 35.6551 219.854 30.7537C219.433 30.2875 219.028 29.8105 218.622 29.3312C217.98 28.5884 217.279 27.9458 216.531 27.3119C216.164 26.996 215.83 26.6649 215.49 26.3229C213.674 24.6586 211.737 23.1425 209.742 21.7047C209.423 21.4738 209.104 21.2429 208.792 21.0055C207.87 20.3149 206.889 19.7769 205.885 19.2366C205.382 18.96 204.9 18.6702 204.419 18.3566C202.716 17.2695 200.84 16.4679 199.018 15.6554C198.877 15.5924 198.736 15.5297 198.591 15.4648C197.662 15.0574 196.717 14.6958 195.771 14.3494C195.545 14.266 195.318 14.1826 195.085 14.0967C192.569 13.1796 190.075 12.3824 187.45 11.8966C186.667 11.7417 186.667 11.7417 185.906 11.5262C184.535 11.1734 183.108 11.0971 181.698 10.9664C181.13 10.9126 180.559 10.8577 179.991 10.8022C179.742 10.7786 179.49 10.7553 179.232 10.7311C178.633 10.6534 178.633 10.6534 178.199 10.4349C177.618 10.4133 177.045 10.4044 176.464 10.4059C176.292 10.4057 176.121 10.4055 175.943 10.4053C175.581 10.4051 175.217 10.4055 174.855 10.4064C174.297 10.4076 173.74 10.4065 173.184 10.4051C172.831 10.4052 172.479 10.4055 172.126 10.4059C171.874 10.4052 171.874 10.4052 171.618 10.4046C170.759 10.3901 170.759 10.3901 169.957 10.6529C169.645 10.6932 169.33 10.7228 169.015 10.7466C168.727 10.7699 168.727 10.7699 168.43 10.7938C168.222 10.8103 168.013 10.8267 167.801 10.8437C166.165 10.9832 164.547 11.1574 162.92 11.4145C162.755 11.4402 162.591 11.4661 162.419 11.4927C161.437 11.655 160.5 11.8891 159.535 12.1767C159.129 12.2784 158.721 12.3784 158.316 12.4773C156.179 13.0132 154.129 13.6645 152.112 14.5424C151.594 14.7578 151.086 14.9323 150.55 15.0914C149.422 15.4486 148.422 16.0368 147.405 16.6162C146.833 16.9256 146.271 17.1652 145.666 17.4048C144.527 17.9886 143.41 18.6138 142.347 19.3109C141.672 19.7444 141.022 20.0232 140.245 20.2367V20.6724C139.785 21.0013 139.785 21.0013 139.187 21.352C138.99 21.4694 138.794 21.5873 138.592 21.7071C138.076 21.9772 138.076 21.9772 137.642 21.9772C137.571 22.1929 137.499 22.4085 137.425 22.6307C137 22.9313 136.564 23.2211 136.124 23.5021C134.992 24.3712 133.933 25.3341 132.87 26.2904C132.736 26.4091 132.601 26.5278 132.462 26.6498C132.342 26.7574 132.222 26.8648 132.098 26.9766C131.784 27.2097 131.784 27.2097 131.35 27.2097C131.264 27.4068 131.264 27.4068 131.176 27.6083C130.903 28.105 130.666 28.3359 130.224 28.6801C129.206 29.5209 128.38 30.5034 127.556 31.5338C127.309 31.8409 127.053 32.1415 126.792 32.44H126.359C126.336 32.5702 126.314 32.7014 126.291 32.8343C126.116 33.3919 125.916 33.5705 125.49 33.9648C125.024 34.5312 124.595 35.0954 124.189 35.7075H123.755C123.715 35.8827 123.675 36.0583 123.633 36.2391C123.275 37.1278 122.787 37.7247 122.193 38.461C121.722 39.0775 121.364 39.7179 121.002 40.4019C120.681 41.0032 120.334 41.5848 119.987 42.1708C118.79 44.2272 117.753 46.3533 116.82 48.5534C116.731 48.7593 116.642 48.9651 116.549 49.1764C116.026 50.4007 115.573 51.6162 115.23 52.9015C115.084 53.3502 115.084 53.3502 114.649 54.0037C114.516 54.4198 114.516 54.4198 114.423 54.8707C114.387 55.0348 114.35 55.1997 114.312 55.3674C114.275 55.5375 114.238 55.7072 114.2 55.8837C113.808 57.6808 113.808 57.6808 113.563 57.927C113.502 58.2145 113.452 58.5064 113.407 58.7983C113.379 58.9735 113.352 59.1491 113.323 59.3299C113.295 59.5142 113.266 59.698 113.237 59.8875C113.181 60.2513 113.125 60.6129 113.068 60.9767C113.043 61.1386 113.018 61.2991 112.993 61.4669C112.912 61.8481 112.912 61.8481 112.696 62.0659C112.103 65.4206 111.991 68.906 111.919 72.3043C111.913 72.5897 111.913 72.5897 111.906 72.8816C111.78 78.6107 111.787 84.3616 111.777 90.1125C111.774 91.7703 111.77 93.4237 111.765 95.0792C111.757 98.0418 111.749 101.004 111.742 103.967C111.742 104.143 111.741 104.318 111.741 104.499C111.735 107.004 111.73 109.509 111.725 111.992C111.725 112.169 111.724 112.347 111.724 112.528C111.724 112.705 111.723 112.881 111.723 113.064C111.717 116.027 111.71 118.989 111.701 121.93C111.696 123.742 111.692 125.546 111.689 127.376C111.688 128.615 111.685 129.859 111.68 131.101C111.678 131.813 111.676 132.526 111.676 133.238C111.675 137.203 111.659 141.145 110.581 144.979C110.525 145.187 110.469 145.393 110.412 145.607C109.891 147.491 109.264 149.332 108.574 151.162H108.141C108.106 151.278 108.072 151.395 108.036 151.515C107.62 152.85 107.056 154.063 106.405 155.305H105.971C105.927 155.48 105.882 155.656 105.836 155.836C105.339 157.128 104.578 158.254 103.58 159.235C103.333 159.509 103.09 159.786 102.847 160.065C102.647 160.296 102.647 160.296 102.443 160.529C102.122 160.903 101.812 161.285 101.506 161.67C100.936 162.33 100.352 162.822 99.6758 163.371C99.5146 163.538 99.3547 163.705 99.1877 163.875C98.8081 164.243 98.8081 164.243 98.3743 164.243C98.3027 164.458 98.2312 164.674 98.1574 164.896C97.8472 165.186 97.8472 165.186 97.4546 165.476C97.3126 165.581 97.1705 165.686 97.023 165.794C96.8735 165.902 96.7237 166.009 96.5696 166.121C96.4228 166.23 96.2768 166.341 96.125 166.452C95.0079 167.269 95.0079 167.269 94.4331 167.391C94.3017 167.429 94.1707 167.468 94.034 167.508C93.9624 167.723 93.8909 167.939 93.8171 168.161C93.4614 168.32 93.0992 168.464 92.7326 168.597C92.3682 168.81 92.0081 169.028 91.648 169.25C88.6114 171.021 85.3144 172.148 81.8873 172.954C81.6769 173.006 81.6769 173.006 81.4621 173.059C74.6296 174.69 66.7559 174.183 60.227 171.673C60.0784 171.617 59.9299 171.56 59.7759 171.502C59.3377 171.333 58.9017 171.164 58.4636 170.992L57.7608 170.72C53.401 168.966 49.1713 166.101 45.8743 162.725C45.7043 162.559 45.5338 162.392 45.3581 162.222C43.9808 160.806 42.7552 159.259 41.5406 157.712C41.3937 157.535 41.2477 157.357 41.0959 157.177C40.6708 156.621 40.3476 156.072 40.0222 155.453C39.8552 155.14 39.8552 155.14 39.686 154.82C39.5825 154.625 39.4791 154.43 39.3715 154.229C39.0158 153.593 38.6579 152.959 38.2805 152.334C37.4692 150.964 36.9964 149.502 36.517 147.999C36.33 147.446 36.33 147.446 36.0181 146.794C35.6017 145.832 35.4195 144.834 35.2242 143.81C35.152 143.438 35.0794 143.067 35.0052 142.695C34.9585 142.451 34.9585 142.451 34.911 142.202C34.8507 141.819 34.8507 141.819 34.6009 141.603C33.9371 136.637 34.1193 131.539 34.1497 126.551C34.1593 124.967 34.1655 123.392 34.1705 121.802C34.1727 121.257 34.1764 120.71 34.1803 120.166C34.1998 116.528 33.8506 113.478 31.5123 110.516C31.1696 110.069 30.944 109.644 30.6946 109.143C30.2868 108.901 30.2868 108.901 29.827 108.708L29.4474 108.407C28.1763 107.486 26.8228 107.037 25.3262 106.662C24.8446 106.529 24.8446 106.529 24.6277 106.311C24.0334 106.284 23.4456 106.271 22.8513 106.27C22.6873 106.268 22.5237 106.265 22.3545 106.262C21.3568 106.26 20.5781 106.377 19.6432 106.746C19.4669 106.798 19.2897 106.849 19.1096 106.903C15.8127 107.95 13.3182 110.018 11.6914 113.089C11.4572 113.586 11.2359 114.076 11.0429 114.59C10.9648 114.792 10.9648 114.792 10.8852 115C10.1087 117.548 10.3603 120.467 11.4817 122.864C11.9415 123.728 12.4339 124.556 12.9957 125.369C13.3471 125.926 13.3471 125.926 13.3471 126.798C12.8309 127.397 12.8309 127.397 12.2626 127.887H11.8287C11.755 128.069 11.755 128.069 11.6795 128.255C11.1871 129.126 10.6102 129.747 9.66012 130.065L9.47033 130.447C9.14063 131.111 8.6873 131.531 8.14287 132.026C7.92813 132.098 7.71339 132.17 7.49215 132.244C7.42057 132.459 7.34899 132.675 7.27524 132.897C6.51607 132.968 6.11261 133.001 5.48792 132.536C3.63555 130.381 2.10419 127.983 1.19318 125.282L0.963265 124.641C0.86262 124.31 0.862623 124.31 0.759809 123.975C0.707535 123.818 0.655265 123.661 0.601472 123.5C0.0657138 121.761 -0.0080385 120.101 0.000637748 118.293C0.00109108 118.145 0.00154608 117.995 0.00201459 117.842C0.0247897 114.205 0.832768 111.329 2.53982 108.149C2.92374 107.452 2.92374 107.452 3.1515 106.815C3.37057 106.295 3.59833 106.053 4.00828 105.674C4.22041 105.395 4.42906 105.114 4.63296 104.829C5.17088 104.101 5.73919 103.465 6.39425 102.842C6.58664 102.64 6.77816 102.437 6.97771 102.23C7.47877 101.753 7.47878 101.753 7.91259 101.753C7.98417 101.537 8.05575 101.322 8.1295 101.099C8.41581 100.946 8.7043 100.801 8.99712 100.664C9.13225 100.52 9.13224 100.52 9.27041 100.374C9.78014 99.8839 10.3419 99.5636 10.9493 99.2064C11.177 99.0707 11.4048 98.9341 11.6412 98.7947C12.2507 98.4832 12.2507 98.4832 12.9014 98.4832V98.0475C14.127 97.5966 15.3525 97.1544 16.5888 96.7405L17.0855 96.5261C18.9358 95.8312 20.9899 95.8312 22.942 95.829C23.1205 95.8288 23.2999 95.8287 23.4821 95.8285C25.1545 95.8437 26.714 95.9368 28.2974 96.5234C28.6011 96.6047 28.6011 96.6047 28.9113 96.6876C32.7505 97.7333 36.2644 99.8681 38.7154 103.049C38.9124 103.242 39.1102 103.434 39.3119 103.634C39.8 104.138 39.8 104.138 39.8 104.573C40.0147 104.645 40.2294 104.717 40.4507 104.791C40.7587 105.251 41.0276 105.695 41.2923 106.181C41.407 106.389 41.407 106.389 41.5244 106.601C41.7478 107.013 41.969 107.427 42.1881 107.841L42.5048 108.438C43.0861 109.627 43.496 110.856 43.8691 112.119C43.9149 112.268 43.9607 112.416 44.0077 112.57C44.8233 115.511 44.6107 118.8 44.6302 121.828C44.6349 122.51 44.6407 123.192 44.6469 123.874C44.6619 125.564 44.6749 127.25 44.6879 128.949C44.699 130.385 44.7109 131.825 44.7239 133.263C44.7296 133.931 44.7341 134.6 44.7386 135.269C44.7422 135.681 44.7459 136.092 44.7496 136.504C44.7505 136.688 44.7514 136.872 44.7524 137.062C44.7691 138.658 44.9181 140.09 45.4422 141.615C45.5387 142.022 45.6332 142.431 45.7263 142.839C46.8629 147.435 49.5872 151.509 52.8191 154.907C52.964 155.064 53.1098 155.221 53.2573 155.382C54.1401 156.31 55.0446 157.024 56.1421 157.691C56.2629 157.779 56.3829 157.867 56.5087 157.959V158.395C56.6564 158.444 56.8037 158.493 56.9555 158.544C57.4913 158.786 57.8622 159.013 58.3242 159.361C59.0487 159.895 59.7948 160.246 60.6234 160.573C61.0485 160.754 61.4737 160.936 61.8988 161.117C63.4692 161.771 65.0006 162.302 66.6707 162.649C67.0764 162.739 67.4776 162.859 67.8746 162.982C69.6055 163.439 71.3885 163.439 73.1671 163.431C73.3753 163.43 73.5835 163.429 73.7983 163.428C76.2493 163.551 76.2493 163.551 78.5702 162.984C79.3142 162.624 80.1037 162.516 80.9128 162.354C82.3075 162.062 83.5374 161.69 84.8171 161.043C85.6175 160.653 86.4439 160.4 87.2898 160.135V159.699C87.4688 159.614 87.6477 159.528 87.8321 159.44C89.0902 158.786 90.2181 158.128 91.1942 157.087C91.4414 156.877 91.6909 156.669 91.9403 156.46C92.6539 155.852 93.2092 155.203 93.797 154.473C94.0508 154.222 94.0508 154.222 94.3111 153.965C95.8511 152.395 97.0658 150.524 98.1286 148.585C98.2059 148.448 98.2831 148.31 98.3629 148.169C100.343 144.444 101.204 140.261 101.204 136.079C101.205 135.809 101.206 135.539 101.207 135.26C101.209 134.513 101.211 133.768 101.212 133.016C101.213 132.21 101.216 131.402 101.218 130.598C101.222 129.199 101.225 127.81 101.228 126.415C101.232 124.387 101.237 122.364 101.243 120.338C101.252 117.048 101.261 113.737 101.269 110.448C101.269 110.251 101.27 110.054 101.27 109.849C101.273 108.649 101.276 107.453 101.279 106.255C101.283 104.464 101.287 102.682 101.291 100.874C101.292 100.678 101.292 100.482 101.293 100.281C101.301 96.9921 101.309 93.7245 101.319 90.4352C101.324 88.418 101.329 86.4052 101.333 84.3793C101.336 82.9917 101.339 81.6128 101.343 80.2186C101.346 79.4213 101.348 78.624 101.349 77.8224C101.353 74.6855 101.381 71.5704 101.472 68.4336C101.479 68.1722 101.485 67.9129 101.492 67.645C101.537 66.3118 101.665 65.1399 102.039 63.8546C102.104 63.4342 102.162 63.0116 102.208 62.5868L102.287 61.9072C102.339 61.4432 102.39 60.9792 102.441 60.5152C102.572 59.3933 102.73 58.3847 103.122 57.313C103.242 56.7117 103.338 56.1083 103.435 55.5005C103.559 54.9037 103.76 54.3896 103.99 53.8275C104.102 53.3635 104.191 52.8974 104.281 52.4268C104.443 51.7929 104.664 51.1982 104.899 50.5861C105.181 49.8433 105.437 49.0896 105.697 48.3424C107.239 43.9421 107.239 43.9421 108.105 42.5043C108.365 41.9837 108.623 41.4631 108.877 40.9381C110.161 38.324 111.48 35.71 113.215 33.3573C113.545 32.9107 113.545 32.9107 113.837 32.401C114.26 31.6974 114.727 31.033 115.202 30.3664C115.345 30.1653 115.345 30.1653 115.492 29.9612C116.67 28.3209 117.922 26.759 119.267 25.2559C119.579 24.8987 119.88 24.5349 120.18 24.1667C120.685 23.5655 121.225 23.0209 121.781 22.4654C121.946 22.2587 122.112 22.0515 122.282 21.838C123.121 20.8077 124.162 19.9821 125.188 19.1586C125.674 18.7796 125.674 18.7796 126.069 18.3701C130.906 13.5123 137.153 10.0051 143.248 6.99893C143.475 6.88631 143.475 6.88631 143.71 6.7702C146.486 5.41089 149.263 4.19971 152.256 3.43728C152.744 3.30745 153.212 3.15409 153.69 2.98418C155.004 2.53325 156.358 2.22175 157.702 1.89499C158.06 1.80611 158.416 1.71222 158.772 1.61616C160.407 1.1783 162.047 0.914719 163.717 0.709951C164.151 0.656799 164.583 0.60125 165.016 0.545266C168.01 0.168406 170.96 -0.00804257 173.975 0.00284932L173.956 0Z" fill="#FFFDF2"/>
</svg>
