<svg width="36" height="36" viewBox="0 0 36 36" fill="none" xmlns="http://www.w3.org/2000/svg">
<path d="M30.3995 5.61816C28.787 3.99754 26.8664 2.71259 24.7496 1.83826C22.6328 0.963937 20.3623 0.517734 18.0704 0.525678C8.46734 0.525678 0.640704 8.31315 0.640704 17.8681C0.640704 20.9306 1.44975 23.9056 2.96231 26.5306L0.5 35.5256L9.73367 33.1106C12.2839 34.4931 15.1508 35.2281 18.0704 35.2281C27.6734 35.2281 35.5 27.4406 35.5 17.8856C35.5 13.2481 33.6884 8.89065 30.3995 5.61816ZM18.0704 32.2881C15.4673 32.2881 12.9171 31.5881 10.6834 30.2756L10.1558 29.9606L4.66834 31.3956L6.12814 26.0756L5.77638 25.5331C4.33021 23.2353 3.56231 20.5793 3.5603 17.8681C3.5603 9.92315 10.0678 3.44817 18.0528 3.44817C21.9221 3.44817 25.5628 4.95317 28.2889 7.68316C29.6388 9.02009 30.7085 10.6103 31.4361 12.3616C32.1637 14.113 32.5347 15.9906 32.5276 17.8856C32.5628 25.8306 26.0553 32.2881 18.0704 32.2881ZM26.0201 21.5081C25.5804 21.2981 23.4347 20.2481 23.0477 20.0906C22.6432 19.9506 22.3618 19.8806 22.0628 20.3006C21.7638 20.7381 20.9372 21.7181 20.691 21.9981C20.4447 22.2956 20.1809 22.3306 19.7412 22.1031C19.3015 21.8931 17.8945 21.4206 16.2412 19.9506C14.9397 18.7956 14.0779 17.3781 13.8141 16.9406C13.5678 16.5031 13.7789 16.2756 14.0075 16.0481C14.201 15.8556 14.4472 15.5406 14.6583 15.2956C14.8693 15.0506 14.9573 14.8581 15.098 14.5781C15.2387 14.2806 15.1683 14.0356 15.0628 13.8256C14.9573 13.6156 14.0779 11.4806 13.7261 10.6056C13.3744 9.76565 13.005 9.87065 12.7412 9.85315H11.897C11.598 9.85315 11.1407 9.95815 10.7362 10.3956C10.3492 10.8331 9.22362 11.8831 9.22362 14.0181C9.22362 16.1531 10.7889 18.2181 11 18.4981C11.2111 18.7956 14.0779 23.1706 18.4397 25.0431C19.4774 25.4981 20.2864 25.7606 20.9196 25.9531C21.9573 26.2856 22.907 26.2331 23.6633 26.1281C24.5075 26.0056 26.2487 25.0781 26.6005 24.0631C26.9698 23.0481 26.9698 22.1906 26.8467 21.9981C26.7236 21.8056 26.4598 21.7181 26.0201 21.5081Z" fill="#FFFDF2"/>
</svg>
